<svg id="Layer_1" data-name="Layer 1" xmlns="http://www.w3.org/2000/svg" viewBox="0 0 13.3344 3.88072"><defs><style>.cls-1,.cls-2{fill:none;stroke:#ee2549;stroke-miterlimit:10;}.cls-1{stroke-width:0.01857px;}.cls-2{stroke-width:0.04px;}</style></defs><path class="cls-1" d="M5.25883.41963c.02091.0732.15511.37123.12374.47057" transform="translate(-0.04266 -0.06161)"/><path class="cls-1" d="M5.149.43531a1.70686,1.70686,0,0,1,.04182.37646" transform="translate(-0.04266 -0.06161)"/><path class="cls-1" d="M5.05491.71766" transform="translate(-0.04266 -0.06161)"/><path class="cls-1" d="M5.05491.52943" transform="translate(-0.04266 -0.06161)"/><path class="cls-1" d="M4.8144.35166A.51841.51841,0,0,0,4.77257.7804" transform="translate(-0.04266 -0.06161)"/><path class="cls-1" d="M4.92943.47714a2.13818,2.13818,0,0,0,.01045.366" transform="translate(-0.04266 -0.06161)"/><path class="cls-1" d="M.96616.33771A2.60559,2.60559,0,0,0,.97662.82746" transform="translate(-0.04266 -0.06161)"/><path class="cls-1" d="M1.14393.49457c0,.06274.05229.34334.01046.36426" transform="translate(-0.04266 -0.06161)"/><path class="cls-2" d="M.07229.712A.345.345,0,0,0,.20976.99477a2.842,2.842,0,0,0,.50717.08889,1.72456,1.72456,0,0,0,.28932-.0244l.26491-.02789c.0488.01394,1.12589.01569,1.27926.06449l.14815.0183a.93285.93285,0,0,0,.43571-.04793l.01046-.00262c.0488.014.18823-.02875.33463-.00784.15933.02276,1.32283.05751,1.32283.05751a1.585,1.585,0,0,0,.70585-.01568,2.672,2.672,0,0,0,.78778.02266c.25794-.014.25794-.007.25794.01394a1.97933,1.97933,0,0,1-.13594.19346.57884.57884,0,0,0-.05229.251,1.5718,1.5718,0,0,0,.1098.27711c.0488.07669.3237.15846.31546.18649a.42214.42214,0,0,0-.09063.29454c.01394.18823.02266.26317.11329.34683a1.53561,1.53561,0,0,0,.26491.17429.31458.31458,0,0,0-.10631.22134.44172.44172,0,0,0,.10631.31546,2.89182,2.89182,0,0,0,.45837.41654,1.65379,1.65379,0,0,0,.847.09412c.03486-.007.60652-.0366.93069-.07843.03931-.00508.62666-.0893.75814-.24575a4.54458,4.54458,0,0,1,.64835-.26665c.13071-.054.366-.08018.55423-.14292a10.0234,10.0234,0,0,1,2.08331.21817" transform="translate(-0.04266 -0.06161)"/><path class="cls-1" d="M.07469.71678" transform="translate(-0.04266 -0.06161)"/><path class="cls-1" d="M.21785.42022" transform="translate(-0.04266 -0.06161)"/><path class="cls-1" d="M2.98439.4876c0,.06274.04706.38691.00523.40783" transform="translate(-0.04266 -0.06161)"/><path class="cls-2" d="M13.04006.63773c.316.01855.13093,2.28329.31843,2.752" transform="translate(-0.04266 -0.06161)"/><path class="cls-2" d="M.21412.3839C.21839.37718.22719.37954.22719.37606c0-.02789.22657-.115.22657-.115A.81881.81881,0,0,1,.61411.214a2.01151,2.01151,0,0,1,.434-.04357l.29977.06274s.85322.03528,1.02306.007c.2196-.0366.29716-.05316.44791-.06971l.23355.02091a1.73131,1.73131,0,0,0,.42177.04532c.22305-.01743,1.0736,0,1.13634.007L4.69937.21571c.11851-.02091.35332-.04524.3782-.0488A1.29291,1.29291,0,0,1,5.4244.207c.06369.01911,1.03489.03239,1.11277.03455a.027.027,0,0,1,.01467.00567A1.32721,1.32721,0,0,0,6.86748.20874,9.432,9.432,0,0,1,8.20077.17388.553.553,0,0,1,8.7062.1216a2.51477,2.51477,0,0,0,.56817.14988,4.22312,4.22312,0,0,1,.63615.183,5.26424,5.26424,0,0,1,.50368.183,2.46322,2.46322,0,0,0,.56817.06972c.12519-.00863.75055.0351,1.21066-.00673a6.19167,6.19167,0,0,0,.847-.06274" transform="translate(-0.04266 -0.06161)"/><path class="cls-1" d="M2.74744.33074a3.05248,3.05248,0,0,0,.00523.53332" transform="translate(-0.04266 -0.06161)"/><path class="cls-1" d="M2.93044.89543" transform="translate(-0.04266 -0.06161)"/><path class="cls-1" d="M2.92521.4876" transform="translate(-0.04266 -0.06161)"/><path class="cls-2" d="M.1871.39A.45569.45569,0,0,1,.459.37954c.06274.04183.09412.29629.07843.3172S.52173.84314.48513.87451a.58764.58764,0,0,1-.26665.0732C.208.9268.1871.97908.093.76994A.31231.31231,0,0,1,.1871.39Z" transform="translate(-0.04266 -0.06161)"/><path class="cls-1" d="M6.96683.49457C6.8774.538,6.73508.95592,6.79254.99651" transform="translate(-0.04266 -0.06161)"/><path class="cls-1" d="M7.18294.641C7.162.67583,7.1202.9268,7.08534.9268" transform="translate(-0.04266 -0.06161)"/><path class="cls-1" d="M7.13414,1.50543c-.02091.02091-.11154.23006-.03485.3416" transform="translate(-0.04266 -0.06161)"/><line class="cls-1" x1="5.05756" y1="0.45823" x2="4.95822" y2="0.54712"/><line class="cls-1" x1="4.95561" y1="0.45562" x2="5.06279" y2="0.56019"/><line class="cls-1" x1="5.05234" y1="0.61509" x2="4.95822" y2="0.71443"/><line class="cls-1" x1="4.96345" y1="0.62293" x2="5.07586" y2="0.71182"/><line class="cls-1" x1="2.8206" y1="0.41379" x2="2.7474" y2="0.48176"/><line class="cls-1" x1="2.75263" y1="0.3981" x2="2.82322" y2="0.49744"/><line class="cls-1" x1="2.84152" y1="0.68567" x2="2.7657" y2="0.76149"/><line class="cls-1" x1="2.77355" y1="0.67783" x2="2.84152" y2="0.76149"/><line class="cls-1" x1="1.03156" y1="0.45997" x2="0.97143" y2="0.50703"/><line class="cls-1" x1="0.98189" y1="0.43644" x2="1.02894" y2="0.53056"/><line class="cls-1" x1="1.03679" y1="0.65692" x2="0.98973" y2="0.7092"/><line class="cls-1" x1="0.98189" y1="0.64384" x2="1.0577" y2="0.71704"/><line class="cls-1" x1="6.98691" y1="0.55844" x2="7.04965" y2="0.67696"/><line class="cls-1" x1="7.09148" y1="0.57936" x2="6.95205" y2="0.66999"/><line class="cls-1" x1="6.97297" y1="0.76062" x2="6.87537" y2="0.83033"/><path class="cls-1" d="M6.95289.80131" transform="translate(-0.04266 -0.06161)"/><path class="cls-1" d="M5.58648,1.13943" transform="translate(-0.04266 -0.06161)"/><line class="cls-1" x1="6.91022" y1="0.7397" x2="6.9416" y2="0.85822"/></svg>